<svg xmlns="http://www.w3.org/2000/svg" version="1.1" xmlns:xlink="http://www.w3.org/1999/xlink" viewBox="0 0 700 700" style="overflow: hidden; display: block;" width="700" height="700"><defs></defs><g id="two-0" transform="matrix(1 0 0 1 0 0)" opacity="1"><path transform="matrix(1 0 0 1 350 350)" id="two-28" d="M 274.884362 80.713331 C 269.526739 108.041686 268.641714 139.624074 251.973139 161.933304 C 235.112074 184.500162 204.616368 194.201095 179.755952 207.449427 C 157.232599 219.452318 134.519262 237.286912 109.040105 238.764525 C 82.063877 240.328959 51.682363 231.682476 30.838516 214.486593 C 4.641095 192.874086 15.62068 129.837813 -17.798312 123.789976 C -45.73893 118.73356 -54.436649 185.145013 -82.458198 180.558265 C -101.715658 177.40608 -94.354263 137.447727 -112.137202 129.413228 C -151.755851 111.513149 -199.511209 166.922452 -241.349162 155.105688 C -271.247129 146.661269 -314.947126 121.891071 -310.4371 91.152556 C -300.509875 23.492611 -140.061063 66.551847 -124.336252 0 C -119.84839 -18.993903 -148.507402 -31.400951 -160.189093 -47.035762 C -186.045394 -81.641915 -245.01844 -110.106441 -237.52989 -152.651191 C -232.944232 -178.703719 -194.709514 -185.67239 -170.932987 -197.267182 C -148.985113 -207.970219 -124.589639 -225.049987 -100.628537 -220.34576 C -67.231072 -213.788915 -55.322989 -146.251925 -22.072434 -153.517147 C 26.725376 -164.179434 -7.799303 -284.857156 41.80212 -290.740135 C 72.228619 -294.348871 71.090453 -229.322996 99.587224 -218.065605 C 131.380864 -205.505815 181.191718 -260.267688 202.065797 -233.196362 C 233.276181 -192.720013 119.982816 -137.248783 141.226924 -90.761034 C 152.79341 -65.450491 197.93007 -79.780827 221.539521 -65.049873 C 246.784442 -49.298479 274.442178 -28.185286 283.981682 -0.000001 C 292.574852 25.389261 280.041036 54.409987 274.884362 80.713331 Z " fill="white" stroke="undefined" stroke-width="1" stroke-opacity="1" fill-opacity="1" visibility="visible" stroke-linecap="butt" stroke-linejoin="miter" stroke-miterlimit="4"></path></g></svg>